<svg width="30" height="30" viewBox="0 0 30 30" fill="none" xmlns="http://www.w3.org/2000/svg">
<path d="M7.75 11.25C7.75 13.2391 8.59286 15.1468 10.0931 16.5533C11.5934 17.9598 13.6283 18.75 15.75 18.75C17.8717 18.75 19.9066 17.9598 21.4069 16.5533C22.9071 15.1468 23.75 13.2391 23.75 11.25C23.75 9.26088 22.9071 7.35322 21.4069 5.9467C19.9066 4.54018 17.8717 3.75 15.75 3.75C13.6283 3.75 11.5934 4.54018 10.0931 5.9467C8.59286 7.35322 7.75 9.26088 7.75 11.25Z" stroke="#005496" stroke-width="2" stroke-linecap="round" stroke-linejoin="round"/>
<path d="M15.75 18.75C17.5273 18.3337 18.4167 18.125 18.4167 11.25C18.4167 6.66667 17.5278 4.16667 15.75 3.75C13.9722 4.16667 13.0833 6.66667 13.0833 11.25C13.0833 18.125 13.9727 18.3337 15.75 18.75ZM15.75 18.75V22.5M7.75 11.25H23.75M3.75 25H13.0833M13.0833 25C13.0833 25.663 13.3643 26.2989 13.8644 26.7678C14.3645 27.2366 15.0428 27.5 15.75 27.5C16.4572 27.5 17.1355 27.2366 17.6356 26.7678C18.1357 26.2989 18.4167 25.663 18.4167 25M13.0833 25C13.0833 24.337 13.3643 23.7011 13.8644 23.2322C14.3645 22.7634 15.0428 22.5 15.75 22.5M18.4167 25H27.75M18.4167 25C18.4167 24.337 18.1357 23.7011 17.6356 23.2322C17.1355 22.7634 16.4572 22.5 15.75 22.5" stroke="#005496" stroke-width="2" stroke-linecap="round" stroke-linejoin="round"/>
</svg>
