<svg width="30" height="30" viewBox="0 0 30 30" fill="none" xmlns="http://www.w3.org/2000/svg">
<path d="M15 21.25C13.625 21.25 12.5 20.125 12.5 18.75C12.5 17.375 13.625 16.25 15 16.25C16.375 16.25 17.5 17.375 17.5 18.75C17.5 20.125 16.375 21.25 15 21.25ZM15 12.5C17.925 12.5 23.75 13.95 23.75 16.875V23.2875C23.75 24.375 22.8875 25.3 21.675 25.9875V16.725C21.675 16.025 18.25 14.425 15 14.425C11.75 14.425 8.325 16.025 8.325 16.725V23.4375C8.325 23.75 9.1375 24.325 10.35 24.8125C11.25 23.75 13.6625 23.2 15 23.2C16.6625 23.2 20 24.025 20 25.7V26.7375C18.2875 27.35 16.3375 27.6625 15 27.6625C13.6625 27.6625 11.725 27.35 10 26.7375C7.9625 26.0125 6.25 24.8625 6.25 23.2875V16.875C6.25 13.95 12.075 12.5 15 12.5ZM15 4.6875C13.7875 4.6875 12.8125 5.6625 12.8125 6.875C12.8125 8.0875 13.7875 9.0625 15 9.0625C16.2125 9.0625 17.1875 8.0875 17.1875 6.875C17.1875 5.6625 16.2125 4.6875 15 4.6875ZM15 11.25C12.5875 11.25 10.625 9.2875 10.625 6.875C10.625 4.4625 12.5875 2.5 15 2.5C17.4125 2.5 19.375 4.4625 19.375 6.875C19.375 9.2875 17.4125 11.25 15 11.25Z" fill="#005496"/>
</svg>
