<svg width="26" height="25" viewBox="0 0 26 25" fill="none" xmlns="http://www.w3.org/2000/svg">
<path fill-rule="evenodd" clip-rule="evenodd" d="M5.19219 7.34679L11.7859 4.18273C12.165 4.00135 12.5798 3.9072 13 3.9072C13.4202 3.9072 13.835 4.00135 14.2141 4.18273L20.8078 7.34679C21.043 7.46034 21.2414 7.6378 21.3804 7.85886C21.5194 8.07993 21.5933 8.33566 21.5938 8.59679V9.37492C21.5937 11.6164 21.0296 13.8218 19.9535 15.788C18.8774 17.7543 17.3238 19.4182 15.4359 20.6265L13.8953 21.6124C13.6282 21.784 13.3175 21.8753 13 21.8753C12.6825 21.8753 12.3718 21.784 12.1047 21.6124L10.5641 20.628C8.67594 19.4196 7.12226 17.7555 6.04614 15.7889C4.97003 13.8224 4.40608 11.6166 4.40625 9.37492V8.59679C4.40625 8.06398 4.7125 7.57804 5.19219 7.34679ZM10.7703 2.07023L4.17813 5.23429C3.54482 5.53892 3.01033 6.01606 2.63609 6.61087C2.26184 7.20569 2.06303 7.89403 2.0625 8.59679V9.37492C2.06237 12.0097 2.72522 14.6022 3.99001 16.9136C5.2548 19.225 7.08085 21.181 9.3 22.6015L10.8406 23.5859C11.485 23.9991 12.2345 24.2188 13 24.2188C13.7655 24.2188 14.515 23.9991 15.1594 23.5859L16.7 22.6015C18.9191 21.181 20.7452 19.225 22.01 16.9136C23.2748 14.6022 23.9376 12.0097 23.9375 9.37492V8.59679C23.9375 7.16242 23.1156 5.8546 21.8219 5.23429L15.2281 2.07023C14.5326 1.73697 13.7712 1.56396 13 1.56396C12.2288 1.56396 11.4658 1.73697 10.7703 2.07023ZM13.7344 15.578C13.6192 15.6853 13.5269 15.8147 13.4628 15.9585C13.3988 16.1022 13.3644 16.2574 13.3616 16.4147C13.3588 16.5721 13.3877 16.7284 13.4467 16.8743C13.5056 17.0202 13.5933 17.1528 13.7046 17.264C13.8159 17.3753 13.9485 17.463 14.0944 17.522C14.2403 17.5809 14.3966 17.6099 14.5539 17.6071C14.7113 17.6043 14.8665 17.5699 15.0102 17.5058C15.154 17.4418 15.2833 17.3494 15.3906 17.2343C16.2891 16.3374 17.1375 15.0499 17.7594 13.8046C18.3625 12.5984 18.8594 11.2218 18.8594 10.1562C18.8594 9.84537 18.7359 9.54729 18.5161 9.32753C18.2964 9.10776 17.9983 8.98429 17.6875 8.98429C17.3767 8.98429 17.0786 9.10776 16.8589 9.32753C16.6391 9.54729 16.5156 9.84537 16.5156 10.1562C16.5156 10.653 16.2313 11.6202 15.6625 12.7577C15.1125 13.8562 14.3984 14.9124 13.7344 15.578Z" fill="#005496"/>
</svg>
