<svg width="26" height="25" viewBox="0 0 26 25" fill="none" xmlns="http://www.w3.org/2000/svg">
<g clip-path="url(#clip0_4127_10433)">
<path d="M24.9937 13.4756C24.9937 14.3545 24.3687 15.043 23.6603 15.043H22.3268L22.356 22.8652C22.356 22.9971 22.3477 23.1289 22.3351 23.2607V24.0469C22.3351 25.126 21.5893 26 20.6683 26H20.0016C19.9558 26 19.9099 26 19.8641 25.9951C19.8058 26 19.7474 26 19.6891 26H18.3348H17.3347C16.4138 26 15.6679 25.126 15.6679 24.0469V22.875V19.75C15.6679 18.8857 15.072 18.1875 14.3345 18.1875H11.6676C10.93 18.1875 10.3341 18.8857 10.3341 19.75V22.875V24.0469C10.3341 25.126 9.58823 26 8.66732 26H7.66723H6.33795C6.27545 26 6.21294 25.9951 6.15044 25.9902C6.10043 25.9951 6.05043 26 6.00043 26H5.3337C4.41279 26 3.66689 25.126 3.66689 24.0469V18.5781C3.66689 18.5342 3.66689 18.4854 3.67106 18.4414V15.043H2.33345C1.58338 15.043 1 14.3594 1 13.4756C1 13.0361 1.12501 12.6455 1.4167 12.3037L12.1009 1.39062C12.3926 1.04883 12.726 1 13.0177 1C13.3094 1 13.6427 1.09766 13.8928 1.3418L24.5353 12.3037C24.8687 12.6455 25.0354 13.0361 24.9937 13.4756Z" fill="#005496"/>
</g>
<defs>
<clipPath id="clip0_4127_10433">
<rect width="25" height="25" fill="white" transform="translate(0.5)"/>
</clipPath>
</defs>
</svg>
