<svg width="26" height="25" viewBox="0 0 26 25" fill="none" xmlns="http://www.w3.org/2000/svg">
<path d="M8.38194 11.8403H11.0208C11.7465 11.8403 12.3403 11.2465 12.3403 10.5208V7.88194C12.3403 7.15625 11.7465 6.5625 11.0208 6.5625H8.38194C7.65625 6.5625 7.0625 7.15625 7.0625 7.88194V10.5208C7.0625 11.2465 7.65625 11.8403 8.38194 11.8403ZM8.38194 7.88194H11.0208V10.5208H8.38194V7.88194ZM8.38194 18.4375H11.0208C11.7465 18.4375 12.3403 17.8438 12.3403 17.1181V14.4792C12.3403 13.7535 11.7465 13.1597 11.0208 13.1597H8.38194C7.65625 13.1597 7.0625 13.7535 7.0625 14.4792V17.1181C7.0625 17.8438 7.65625 18.4375 8.38194 18.4375ZM8.38194 14.4792H11.0208V17.1181H8.38194V14.4792ZM13.6597 7.88194V10.5208C13.6597 11.2465 14.2535 11.8403 14.9792 11.8403H17.6181C18.3438 11.8403 18.9375 11.2465 18.9375 10.5208V7.88194C18.9375 7.15625 18.3438 6.5625 17.6181 6.5625H14.9792C14.2535 6.5625 13.6597 7.15625 13.6597 7.88194ZM17.6181 10.5208H14.9792V7.88194H17.6181V10.5208ZM18.9375 18.1076V17.4479C18.9375 17.2632 18.7924 17.1181 18.6076 17.1181H17.9479C17.7632 17.1181 17.6181 17.2632 17.6181 17.4479V18.1076C17.6181 18.2924 17.7632 18.4375 17.9479 18.4375H18.6076C18.7924 18.4375 18.9375 18.2924 18.9375 18.1076ZM13.6597 13.4896V14.1493C13.6597 14.334 13.8049 14.4792 13.9896 14.4792H14.6493C14.834 14.4792 14.9792 14.334 14.9792 14.1493V13.4896C14.9792 13.3049 14.834 13.1597 14.6493 13.1597H13.9896C13.8049 13.1597 13.6597 13.3049 13.6597 13.4896ZM15.9688 14.4792H15.309C15.1243 14.4792 14.9792 14.6243 14.9792 14.809V15.4688C14.9792 15.6535 15.1243 15.7986 15.309 15.7986H15.9688C16.1535 15.7986 16.2986 15.6535 16.2986 15.4688V14.809C16.2986 14.6243 16.1535 14.4792 15.9688 14.4792ZM13.6597 16.1285V16.7882C13.6597 16.9729 13.8049 17.1181 13.9896 17.1181H14.6493C14.834 17.1181 14.9792 16.9729 14.9792 16.7882V16.1285C14.9792 15.9437 14.834 15.7986 14.6493 15.7986H13.9896C13.8049 15.7986 13.6597 15.9437 13.6597 16.1285ZM15.309 18.4375H15.9688C16.1535 18.4375 16.2986 18.2924 16.2986 18.1076V17.4479C16.2986 17.2632 16.1535 17.1181 15.9688 17.1181H15.309C15.1243 17.1181 14.9792 17.2632 14.9792 17.4479V18.1076C14.9792 18.2924 15.1243 18.4375 15.309 18.4375ZM16.6285 17.1181H17.2882C17.4729 17.1181 17.6181 16.9729 17.6181 16.7882V16.1285C17.6181 15.9437 17.4729 15.7986 17.2882 15.7986H16.6285C16.4437 15.7986 16.2986 15.9437 16.2986 16.1285V16.7882C16.2986 16.9729 16.4437 17.1181 16.6285 17.1181ZM17.2882 13.1597H16.6285C16.4437 13.1597 16.2986 13.3049 16.2986 13.4896V14.1493C16.2986 14.334 16.4437 14.4792 16.6285 14.4792H17.2882C17.4729 14.4792 17.6181 14.334 17.6181 14.1493V13.4896C17.6181 13.3049 17.4729 13.1597 17.2882 13.1597ZM17.9479 15.7986H18.6076C18.7924 15.7986 18.9375 15.6535 18.9375 15.4688V14.809C18.9375 14.6243 18.7924 14.4792 18.6076 14.4792H17.9479C17.7632 14.4792 17.6181 14.6243 17.6181 14.809V15.4688C17.6181 15.6535 17.7632 15.7986 17.9479 15.7986Z" fill="#005496"/>
<path d="M4.66602 8.33341V6.25008C4.66602 5.69755 4.88551 5.16764 5.27621 4.77694C5.66691 4.38624 6.19681 4.16675 6.74935 4.16675H8.83268M4.66602 16.6667V18.7501C4.66602 19.3026 4.88551 19.8325 5.27621 20.2232C5.66691 20.6139 6.19681 20.8334 6.74935 20.8334H8.83268M17.166 4.16675H19.2493C19.8019 4.16675 20.3318 4.38624 20.7225 4.77694C21.1132 5.16764 21.3327 5.69755 21.3327 6.25008V8.33341M17.166 20.8334H19.2493C19.8019 20.8334 20.3318 20.6139 20.7225 20.2232C21.1132 19.8325 21.3327 19.3026 21.3327 18.7501V16.6667" stroke="#005496" stroke-width="3.33333" stroke-linecap="round" stroke-linejoin="round"/>
</svg>
