<svg width="13" height="26" viewBox="0 0 13 26" fill="none" xmlns="http://www.w3.org/2000/svg">
<g clip-path="url(#clip0_4104_11040)">
<path d="M12.8106 17.0318C12.8106 18.4548 12.3614 19.6802 11.4632 20.7079C10.5649 21.7356 9.39808 22.3703 7.96266 22.6122V25.0536C7.96266 25.1838 7.92204 25.2907 7.84079 25.3744C7.75954 25.4581 7.65572 25.5 7.52933 25.5H5.7012C5.58384 25.5 5.48228 25.4558 5.39652 25.3675C5.31075 25.2791 5.26787 25.1745 5.26787 25.0536V22.6122C4.67204 22.5285 4.09652 22.3843 3.54131 22.1797C2.9861 21.9751 2.52794 21.7681 2.16683 21.5589C1.80572 21.3496 1.47169 21.1264 1.16475 20.8892C0.857802 20.6521 0.647906 20.4777 0.535059 20.3661C0.422211 20.2545 0.343218 20.1708 0.298079 20.115C0.144607 19.9196 0.135579 19.729 0.270996 19.543L1.66579 17.6596C1.72898 17.5666 1.8328 17.5108 1.97725 17.4922C2.11266 17.4736 2.221 17.5154 2.30225 17.6177L2.32933 17.6456C3.34947 18.5664 4.44634 19.1477 5.61995 19.3895C5.95398 19.4639 6.28801 19.5011 6.62204 19.5011C7.35329 19.5011 7.99652 19.3012 8.55173 18.9012C9.10693 18.5013 9.38454 17.934 9.38454 17.1992C9.38454 16.9388 9.31683 16.6923 9.18141 16.4598C9.046 16.2273 8.89478 16.032 8.72777 15.8739C8.56075 15.7158 8.29669 15.5414 7.93558 15.3507C7.57447 15.1601 7.27655 15.0113 7.04183 14.9043C6.80711 14.7973 6.446 14.6462 5.9585 14.4509C5.60641 14.3021 5.32881 14.1858 5.12568 14.1021C4.92256 14.0184 4.64495 13.8952 4.29287 13.7324C3.94079 13.5697 3.65867 13.4255 3.44652 13.2999C3.23436 13.1744 2.97933 13.0093 2.68141 12.8047C2.3835 12.6001 2.142 12.4024 1.95693 12.2118C1.77186 12.0211 1.57551 11.7932 1.36787 11.5282C1.16023 11.2631 0.999989 10.9934 0.887142 10.719C0.774295 10.4447 0.679503 10.1354 0.602767 9.79129C0.526031 9.44717 0.487663 9.08445 0.487663 8.70312C0.487663 7.41964 0.930024 6.29427 1.81475 5.32701C2.69947 4.35975 3.85051 3.73661 5.26787 3.45759V0.946429C5.26787 0.825521 5.31075 0.720889 5.39652 0.632533C5.48228 0.544178 5.58384 0.5 5.7012 0.5H7.52933C7.65572 0.5 7.75954 0.541853 7.84079 0.625558C7.92204 0.709263 7.96266 0.81622 7.96266 0.946429V3.40179C8.47725 3.45759 8.97603 3.56455 9.45902 3.72266C9.942 3.88077 10.3347 4.03655 10.6371 4.19001C10.9396 4.34347 11.2262 4.51786 11.497 4.71317C11.7679 4.90848 11.9439 5.04334 12.0252 5.11775C12.1064 5.19215 12.1741 5.25725 12.2283 5.31306C12.3818 5.48047 12.4043 5.65718 12.296 5.84319L11.1991 7.88002C11.1269 8.01953 11.0231 8.09394 10.8877 8.10324C10.7613 8.13114 10.6394 8.09859 10.522 8.00558C10.495 7.97768 10.4295 7.92188 10.3257 7.83817C10.2219 7.75446 10.0458 7.63123 9.79756 7.46847C9.54929 7.30571 9.28523 7.1569 9.00537 7.02204C8.72551 6.88718 8.38923 6.76628 7.99652 6.65932C7.60381 6.55236 7.21787 6.49888 6.8387 6.49888C5.98107 6.49888 5.28141 6.69885 4.73975 7.09877C4.19808 7.4987 3.92725 8.01488 3.92725 8.64732C3.92725 8.88914 3.96561 9.11235 4.04235 9.31696C4.11909 9.52158 4.25225 9.71456 4.44183 9.89593C4.63141 10.0773 4.80971 10.2307 4.97673 10.3563C5.14374 10.4819 5.39652 10.626 5.73506 10.7888C6.0736 10.9515 6.34669 11.0771 6.55433 11.1655C6.76197 11.2538 7.07794 11.3817 7.50225 11.5491C7.98072 11.7351 8.34634 11.8816 8.59912 11.9886C8.8519 12.0955 9.19495 12.2583 9.62829 12.4768C10.0616 12.6954 10.4024 12.893 10.6507 13.0698C10.8989 13.2465 11.1788 13.479 11.4903 13.7673C11.8017 14.0556 12.041 14.3509 12.208 14.6532C12.375 14.9555 12.5172 15.3112 12.6345 15.7204C12.7519 16.1297 12.8106 16.5668 12.8106 17.0318Z" fill="#005496"/>
</g>
<defs>
<clipPath id="clip0_4104_11040">
<rect width="13" height="25" fill="white" transform="translate(0 0.5)"/>
</clipPath>
</defs>
</svg>
