<svg width="26" height="25" viewBox="0 0 26 25" fill="none" xmlns="http://www.w3.org/2000/svg">
<path fill-rule="evenodd" clip-rule="evenodd" d="M17.1654 9.37492C17.1654 10.48 16.7264 11.5398 15.945 12.3212C15.1636 13.1026 14.1037 13.5416 12.9987 13.5416C11.8937 13.5416 10.8338 13.1026 10.0525 12.3212C9.27103 11.5398 8.83203 10.48 8.83203 9.37492C8.83203 8.26984 9.27103 7.21006 10.0525 6.42865C10.8338 5.64724 11.8937 5.20825 12.9987 5.20825C14.1037 5.20825 15.1636 5.64724 15.945 6.42865C16.7264 7.21006 17.1654 8.26984 17.1654 9.37492ZM15.082 9.37492C15.082 9.92749 14.8625 10.4573 14.4718 10.8481C14.0812 11.2388 13.5512 11.4583 12.9987 11.4583C12.4462 11.4583 11.9162 11.2388 11.5256 10.8481C11.1349 10.4573 10.9154 9.92749 10.9154 9.37492C10.9154 8.82242 11.1349 8.29249 11.5256 7.90177C11.9162 7.51106 12.4462 7.29156 12.9987 7.29156C13.5512 7.29156 14.0812 7.51106 14.4718 7.90177C14.8625 8.29249 15.082 8.82242 15.082 9.37492Z" fill="#005496"/>
<path fill-rule="evenodd" clip-rule="evenodd" d="M12.9994 1.04175C6.67122 1.04175 1.54102 6.17196 1.54102 12.5001C1.54102 18.8282 6.67122 23.9584 12.9994 23.9584C19.3274 23.9584 24.4577 18.8282 24.4577 12.5001C24.4577 6.17196 19.3274 1.04175 12.9994 1.04175ZM3.62434 12.5001C3.62434 14.6771 4.36706 16.6814 5.61184 18.273C6.48604 17.125 7.61382 16.1946 8.90708 15.5546C10.2004 14.9145 11.6241 14.5821 13.0671 14.5834C14.4914 14.5821 15.8972 14.9059 17.1774 15.5301C18.4577 16.1543 19.5785 17.0625 20.4546 18.1855C21.3571 17.0017 21.9648 15.6201 22.2274 14.1549C22.4899 12.6896 22.3998 11.1829 21.9644 9.75943C21.5291 8.33593 20.761 7.03658 19.7238 5.96887C18.6866 4.90115 17.41 4.09576 15.9997 3.61935C14.5894 3.14295 13.086 3.00921 11.6138 3.22922C10.1416 3.44922 8.74287 4.01663 7.53348 4.88451C6.32408 5.75238 5.33874 6.89578 4.65896 8.22008C3.97919 9.54436 3.62454 11.0115 3.62434 12.5001ZM12.9994 21.8751C10.8472 21.8783 8.76001 21.1379 7.09102 19.7792C7.76279 18.8175 8.65701 18.0323 9.69744 17.4904C10.7379 16.9484 11.8939 16.6659 13.0671 16.6667C14.2256 16.6658 15.3676 16.9413 16.3982 17.4703C17.4289 17.9993 18.3185 18.7666 18.9931 19.7084C17.3111 21.1112 15.1895 21.8781 12.9994 21.8751Z" fill="#005496"/>
</svg>
