<svg width="26" height="25" viewBox="0 0 26 25" fill="none" xmlns="http://www.w3.org/2000/svg">
<path d="M12.2179 15.8145V22.1953C12.2183 22.2506 12.2069 22.3054 12.1845 22.356C12.1621 22.4066 12.1293 22.4518 12.0881 22.4887C12.0469 22.5257 11.9984 22.5534 11.9457 22.5702C11.893 22.5869 11.8373 22.5923 11.7824 22.586C9.97713 22.3643 8.26422 21.6631 6.82165 20.5554C5.37907 19.4477 4.25948 17.9739 3.57923 16.2871C3.55889 16.2359 3.54965 16.1809 3.55211 16.1257C3.55457 16.0706 3.56867 16.0167 3.59348 15.9674C3.6183 15.9181 3.65327 15.8747 3.69609 15.8399C3.73891 15.8051 3.78861 15.7798 3.84192 15.7656L10.0031 14.1114C10.0819 14.0907 10.1653 14.0952 10.2415 14.1242C10.3177 14.1533 10.3828 14.2055 10.4279 14.2735C10.8009 14.8131 11.3332 15.2228 11.9503 15.4453C12.028 15.4711 12.0955 15.5206 12.1436 15.5868C12.1916 15.653 12.2176 15.7327 12.2179 15.8145ZM13.005 2.34377C12.9019 2.343 12.7997 2.36264 12.7042 2.40155C12.6088 2.44047 12.522 2.49789 12.4488 2.57051C12.3756 2.64314 12.3176 2.72952 12.2779 2.82469C12.2383 2.91986 12.2179 3.02193 12.2179 3.12502V8.59377C12.2163 8.79925 12.2964 8.99695 12.4405 9.14344C12.5846 9.28992 12.781 9.37322 12.9865 9.37502C13.7243 9.37184 14.4394 9.62983 15.0053 10.1033C15.5712 10.5768 15.9513 11.2353 16.0783 11.9621C16.2053 12.6889 16.071 13.4372 15.6993 14.0746C15.3275 14.7119 14.7422 15.1971 14.047 15.4444C13.9694 15.4703 13.9019 15.5201 13.8541 15.5865C13.8062 15.6529 13.7805 15.7326 13.7804 15.8145V22.1953C13.78 22.2506 13.7914 22.3052 13.8137 22.3557C13.836 22.4062 13.8688 22.4514 13.9099 22.4883C13.9509 22.5252 13.9994 22.553 14.052 22.5699C14.1045 22.5867 14.1601 22.5922 14.215 22.586C16.7887 22.2816 19.1487 21.0048 20.8117 19.017C22.4747 17.0293 23.3149 14.481 23.1602 11.894C23.0056 9.30698 21.8678 6.87693 19.9799 5.10146C18.0919 3.32598 15.5967 2.33942 13.005 2.34377ZM9.88001 12.2549C9.91637 11.7934 10.0548 11.3458 10.2853 10.9444V10.9375C10.3627 10.8038 10.3987 10.6502 10.3888 10.496C10.3789 10.3418 10.3235 10.194 10.2296 10.0713C10.1639 9.98698 10.0823 9.91632 9.98938 9.8633L5.26966 7.13479C5.18073 7.08351 5.08257 7.05026 4.98079 7.03694C4.87901 7.02362 4.7756 7.03048 4.67647 7.05715C4.57734 7.08381 4.48444 7.12975 4.40307 7.19234C4.32171 7.25492 4.25348 7.33293 4.20227 7.4219C3.06566 9.39042 2.62144 11.683 2.94056 13.9336C2.94809 13.9885 2.96722 14.0412 2.99669 14.0882C3.02616 14.1352 3.06529 14.1753 3.11148 14.206C3.15767 14.2367 3.20986 14.2571 3.26458 14.2661C3.3193 14.275 3.37529 14.2722 3.42884 14.2578L9.60266 12.5977C9.67918 12.5765 9.74728 12.5322 9.79763 12.4709C9.84798 12.4095 9.87812 12.3341 9.88391 12.2549H9.88001Z" fill="#005496"/>
</svg>
