<svg width="25" height="25" viewBox="0 0 25 25" fill="none" xmlns="http://www.w3.org/2000/svg">
<path d="M8.33268 19.7916C8.62782 19.7916 8.87539 19.6916 9.07539 19.4916C9.27539 19.2916 9.37504 19.0444 9.37435 18.7499C9.37365 18.4555 9.27365 18.2083 9.07435 18.0083C8.87504 17.8083 8.62782 17.7083 8.33268 17.7083C8.03754 17.7083 7.79032 17.8083 7.59102 18.0083C7.39171 18.2083 7.29171 18.4555 7.29102 18.7499C7.29032 19.0444 7.39032 19.2919 7.59102 19.4926C7.79171 19.6933 8.03893 19.793 8.33268 19.7916ZM8.33268 15.6249C8.62782 15.6249 8.87539 15.5249 9.07539 15.3249C9.27539 15.1249 9.37504 14.8777 9.37435 14.5833V12.4999C9.37435 12.2048 9.27435 11.9576 9.07435 11.7583C8.87435 11.5589 8.62713 11.4589 8.33268 11.4583C8.03824 11.4576 7.79102 11.5576 7.59102 11.7583C7.39102 11.9589 7.29102 12.2062 7.29102 12.4999V14.5833C7.29102 14.8784 7.39102 15.126 7.59102 15.326C7.79102 15.526 8.03824 15.6256 8.33268 15.6249ZM12.4993 19.7916C12.7945 19.7916 13.0421 19.6916 13.2421 19.4916C13.4421 19.2916 13.5417 19.0444 13.541 18.7499V16.6666C13.541 16.3714 13.441 16.1242 13.241 15.9249C13.041 15.7256 12.7938 15.6256 12.4993 15.6249C12.2049 15.6242 11.9577 15.7242 11.7577 15.9249C11.5577 16.1256 11.4577 16.3728 11.4577 16.6666V18.7499C11.4577 19.0451 11.5577 19.2926 11.7577 19.4926C11.9577 19.6926 12.2049 19.7923 12.4993 19.7916ZM12.4993 13.5416C12.7945 13.5416 13.0421 13.4416 13.2421 13.2416C13.4421 13.0416 13.5417 12.7944 13.541 12.4999C13.5403 12.2055 13.4403 11.9583 13.241 11.7583C13.0417 11.5583 12.7945 11.4583 12.4993 11.4583C12.2042 11.4583 11.957 11.5583 11.7577 11.7583C11.5584 11.9583 11.4584 12.2055 11.4577 12.4999C11.457 12.7944 11.557 13.0419 11.7577 13.2426C11.9584 13.4433 12.2056 13.543 12.4993 13.5416ZM16.666 19.7916C16.9612 19.7916 17.2087 19.6916 17.4087 19.4916C17.6087 19.2916 17.7084 19.0444 17.7077 18.7499C17.707 18.4555 17.607 18.2083 17.4077 18.0083C17.2084 17.8083 16.9612 17.7083 16.666 17.7083C16.3709 17.7083 16.1237 17.8083 15.9243 18.0083C15.725 18.2083 15.625 18.4555 15.6243 18.7499C15.6237 19.0444 15.7237 19.2919 15.9243 19.4926C16.125 19.6933 16.3723 19.793 16.666 19.7916ZM16.666 15.6249C16.9612 15.6249 17.2087 15.5249 17.4087 15.3249C17.6087 15.1249 17.7084 14.8777 17.7077 14.5833V12.4999C17.7077 12.2048 17.6077 11.9576 17.4077 11.7583C17.2077 11.5589 16.9605 11.4589 16.666 11.4583C16.3716 11.4576 16.1243 11.5576 15.9243 11.7583C15.7243 11.9589 15.6243 12.2062 15.6243 12.4999V14.5833C15.6243 14.8784 15.7243 15.126 15.9243 15.326C16.1243 15.526 16.3716 15.6256 16.666 15.6249ZM6.24935 22.9166C5.67643 22.9166 5.18615 22.7128 4.77852 22.3051C4.37088 21.8975 4.16671 21.4069 4.16602 20.8333V9.19263C4.16602 8.91485 4.2181 8.65027 4.32227 8.39888C4.42643 8.14749 4.574 7.92596 4.76497 7.73429L9.81706 2.68221C10.008 2.49124 10.2296 2.34367 10.4816 2.2395C10.7337 2.13534 10.9983 2.08325 11.2754 2.08325H18.7493C19.3223 2.08325 19.8129 2.28742 20.2212 2.69575C20.6296 3.10409 20.8334 3.59436 20.8327 4.16659V20.8333C20.8327 21.4062 20.6289 21.8968 20.2212 22.3051C19.8136 22.7135 19.323 22.9173 18.7493 22.9166H6.24935ZM6.24935 20.8333H18.7493V4.16659H11.3014L6.24935 9.21867V20.8333Z" fill="#005496"/>
</svg>
