<svg width="26" height="25" viewBox="0 0 26 25" fill="none" xmlns="http://www.w3.org/2000/svg">
<path d="M21.334 5.20833V19.7917H4.66732V5.20833H21.334ZM21.334 3.125H4.66732C3.51107 3.125 2.58398 4.05208 2.58398 5.20833V19.7917C2.58398 20.9479 3.51107 21.875 4.66732 21.875H21.334C22.4902 21.875 23.4173 20.9479 23.4173 19.7917V5.20833C23.4173 4.05208 22.4902 3.125 21.334 3.125ZM19.2507 15.625H6.75065V17.7083H19.2507V15.625ZM10.9173 7.29167H6.75065V13.5417H10.9173V7.29167ZM13.0007 9.375H19.2507V7.29167H13.0007V9.375ZM19.2507 11.4583H13.0007V13.5417H19.2507V11.4583Z" fill="#005496"/>
</svg>
