<svg width="26" height="25" viewBox="0 0 26 25" fill="none" xmlns="http://www.w3.org/2000/svg">
<path d="M20.1294 8.20312C19.9864 10.189 18.5132 11.7188 16.9068 11.7188C15.3003 11.7188 13.8247 10.1895 13.6841 8.20312C13.5376 6.13721 14.9717 4.6875 16.9068 4.6875C18.8418 4.6875 20.2759 6.1748 20.1294 8.20312Z" stroke="#005496" stroke-width="2" stroke-linecap="round" stroke-linejoin="round"/>
<path d="M16.9061 14.8438C13.7239 14.8438 10.6639 16.4243 9.89727 19.5024C9.7957 19.9097 10.0511 20.3125 10.4695 20.3125H23.3431C23.7615 20.3125 24.0154 19.9097 23.9153 19.5024C23.1487 16.375 20.0887 14.8438 16.9061 14.8438Z" stroke="#005496" stroke-width="2" stroke-miterlimit="10"/>
<path d="M10.2659 9.0791C10.1517 10.665 8.96122 11.9141 7.67802 11.9141C6.39481 11.9141 5.20243 10.6655 5.09013 9.0791C4.97343 7.4292 6.13212 6.25 7.67802 6.25C9.22392 6.25 10.3826 7.45947 10.2659 9.0791Z" stroke="#005496" stroke-width="2" stroke-linecap="round" stroke-linejoin="round"/>
<path d="M10.5591 14.9414C9.67772 14.5376 8.70702 14.3823 7.67821 14.3823C5.13915 14.3823 2.69286 15.6445 2.08007 18.103C1.9995 18.4282 2.2036 18.75 2.53759 18.75H8.02001" stroke="#005496" stroke-width="2" stroke-miterlimit="10" stroke-linecap="round"/>
</svg>
