<svg width="25" height="26" viewBox="0 0 25 26" fill="none" xmlns="http://www.w3.org/2000/svg">
<path d="M18.6465 18.6145C18.3757 17.7812 17.5944 17.1666 16.6673 17.1666H15.6257V14.0416C15.6257 13.7653 15.5159 13.5004 15.3206 13.305C15.1252 13.1097 14.8603 12.9999 14.584 12.9999H8.33398V10.9166H10.4173C10.6936 10.9166 10.9585 10.8068 11.1539 10.6115C11.3492 10.4161 11.459 10.1512 11.459 9.87492V7.79159H13.5423C14.0949 7.79159 14.6248 7.57209 15.0155 7.18139C15.4062 6.79069 15.6257 6.26079 15.6257 5.70825V5.28117C16.872 5.78363 17.978 6.58062 18.849 7.60391C19.72 8.62721 20.3301 9.84632 20.6271 11.1569C20.924 12.4675 20.8989 13.8305 20.554 15.1293C20.2091 16.4281 19.5545 17.6239 18.6465 18.6145ZM11.459 21.2603C7.3444 20.7499 4.16732 17.2499 4.16732 12.9999C4.16732 12.3541 4.25065 11.7291 4.38607 11.1353L9.37565 16.1249V17.1666C9.37565 17.7191 9.59515 18.249 9.98585 18.6397C10.3765 19.0304 10.9065 19.2499 11.459 19.2499M12.5007 2.58325C11.1327 2.58325 9.77817 2.85269 8.51437 3.37617C7.25056 3.89966 6.10223 4.66695 5.13496 5.63422C3.18145 7.58773 2.08398 10.2372 2.08398 12.9999C2.08398 15.7626 3.18145 18.4121 5.13496 20.3656C6.10223 21.3329 7.25056 22.1002 8.51437 22.6237C9.77817 23.1472 11.1327 23.4166 12.5007 23.4166C15.2633 23.4166 17.9128 22.3191 19.8663 20.3656C21.8199 18.4121 22.9173 15.7626 22.9173 12.9999C22.9173 11.632 22.6479 10.2774 22.1244 9.01363C21.6009 7.74982 20.8336 6.6015 19.8663 5.63422C18.8991 4.66695 17.7507 3.89966 16.4869 3.37617C15.2231 2.85269 13.8686 2.58325 12.5007 2.58325Z" fill="#005496"/>
</svg>
