<svg width="26" height="25" viewBox="0 0 26 25" fill="none" xmlns="http://www.w3.org/2000/svg">
<path d="M4.66732 2.08325C4.11478 2.08325 3.58488 2.30275 3.19418 2.69345C2.80348 3.08415 2.58398 3.61405 2.58398 4.16659V16.6666C2.58398 17.2191 2.80348 17.749 3.19418 18.1397C3.58488 18.5304 4.11478 18.7499 4.66732 18.7499H8.83398V21.8749C8.83398 22.1512 8.94373 22.4161 9.13908 22.6115C9.33443 22.8068 9.59938 22.9166 9.87565 22.9166H10.3965C10.6569 22.9166 10.9173 22.8124 11.1257 22.6145L14.9798 18.7499H21.334C21.8865 18.7499 22.4164 18.5304 22.8071 18.1397C23.1978 17.749 23.4173 17.2191 23.4173 16.6666V4.16659C23.4173 3.61405 23.1978 3.08415 22.8071 2.69345C22.4164 2.30275 21.8865 2.08325 21.334 2.08325H4.66732ZM4.66732 4.16659H21.334V16.6666H14.1257L10.9173 19.8749V16.6666H4.66732V4.16659ZM13.1986 5.72909C12.2715 5.72909 11.5319 5.91659 10.9694 6.29159C10.3965 6.66659 10.1048 7.29159 10.1569 8.01034H12.209C12.209 7.71867 12.3132 7.49992 12.4798 7.35409C12.6882 7.20825 12.9173 7.13534 13.1986 7.13534C13.5215 7.13534 13.8027 7.21867 13.9902 7.40617C14.1777 7.58325 14.2715 7.81242 14.2715 8.12492C14.2715 8.41659 14.1882 8.677 14.0423 8.89575C13.8652 9.12492 13.6465 9.31242 13.3757 9.45825C12.834 9.79159 12.4798 10.0833 12.2611 10.3333C12.0632 10.5833 11.959 10.9374 11.959 11.4583H14.0423C14.0423 11.1666 14.0944 10.9374 14.1882 10.7499C14.2819 10.5728 14.459 10.4166 14.7298 10.2603C15.209 10.0416 15.6048 9.74992 15.9069 9.37492C16.209 8.9895 16.3652 8.58325 16.3652 8.12492C16.3652 7.39575 16.084 6.81242 15.5215 6.37492C14.959 5.94784 14.1777 5.72909 13.1986 5.72909ZM11.959 12.4999V14.5833H14.0423V12.4999H11.959Z" fill="#005496"/>
</svg>
