<svg width="16" height="16" viewBox="0 0 16 16" fill="none" xmlns="http://www.w3.org/2000/svg">
<path d="M7.33398 7.32C7.33398 7.14319 7.40422 6.97362 7.52925 6.84859C7.65427 6.72357 7.82384 6.65333 8.00065 6.65333C8.17746 6.65333 8.34703 6.72357 8.47206 6.84859C8.59708 6.97362 8.66732 7.14319 8.66732 7.32V11.32C8.66732 11.4968 8.59708 11.6664 8.47206 11.7914C8.34703 11.9164 8.17746 11.9867 8.00065 11.9867C7.82384 11.9867 7.65427 11.9164 7.52925 11.7914C7.40422 11.6664 7.33398 11.4968 7.33398 11.32V7.32ZM8.00065 4.034C7.82384 4.034 7.65427 4.10423 7.52925 4.22926C7.40422 4.35428 7.33398 4.52385 7.33398 4.70066C7.33398 4.87747 7.40422 5.04704 7.52925 5.17207C7.65427 5.29709 7.82384 5.36733 8.00065 5.36733C8.17746 5.36733 8.34703 5.29709 8.47206 5.17207C8.59708 5.04704 8.66732 4.87747 8.66732 4.70066C8.66732 4.52385 8.59708 4.35428 8.47206 4.22926C8.34703 4.10423 8.17746 4.034 8.00065 4.034Z" fill="#005496"/>
<path fill-rule="evenodd" clip-rule="evenodd" d="M8.00065 1.33331C4.31865 1.33331 1.33398 4.31798 1.33398 7.99998C1.33398 11.682 4.31865 14.6666 8.00065 14.6666C11.6827 14.6666 14.6673 11.682 14.6673 7.99998C14.6673 4.31798 11.6827 1.33331 8.00065 1.33331ZM2.66732 7.99998C2.66732 9.41447 3.22922 10.771 4.22941 11.7712C5.22961 12.7714 6.58616 13.3333 8.00065 13.3333C9.41514 13.3333 10.7717 12.7714 11.7719 11.7712C12.7721 10.771 13.334 9.41447 13.334 7.99998C13.334 6.58549 12.7721 5.22894 11.7719 4.22874C10.7717 3.22855 9.41514 2.66665 8.00065 2.66665C6.58616 2.66665 5.22961 3.22855 4.22941 4.22874C3.22922 5.22894 2.66732 6.58549 2.66732 7.99998Z" fill="#005496"/>
</svg>
