<svg width="30" height="30" viewBox="0 0 30 30" fill="none" xmlns="http://www.w3.org/2000/svg">
<path d="M15.8775 2.74378L24.6275 6.02503C25.1041 6.20369 25.5149 6.5236 25.8048 6.94197C26.0947 7.36035 26.2501 7.85726 26.25 8.36628V15.07C26.25 17.1593 25.6683 19.2073 24.5699 20.9846C23.4715 22.7619 21.9 24.1982 20.0312 25.1325L15.8387 27.2288C15.5783 27.359 15.2912 27.4268 15 27.4268C14.7088 27.4268 14.4217 27.359 14.1613 27.2288L9.96875 25.1325C8.10005 24.1982 6.52846 22.7619 5.43009 20.9846C4.33171 19.2073 3.74995 17.1593 3.75 15.07V8.36628C3.74994 7.85726 3.90525 7.36035 4.19519 6.94197C4.48513 6.5236 4.89587 6.20369 5.3725 6.02503L14.1225 2.74378C14.6883 2.5317 15.3117 2.5317 15.8775 2.74378ZM15 5.08503L6.25 8.36628V15.07C6.25029 16.6949 6.70299 18.2875 7.55739 19.6696C8.4118 21.0516 9.63415 22.1685 11.0875 22.895L15 24.8538L18.9125 22.8975C20.3662 22.1708 21.5888 21.0536 22.4433 19.671C23.2977 18.2885 23.7502 16.6953 23.75 15.07V8.36628L15 5.08503ZM15 10C15.3315 10 15.6495 10.1317 15.8839 10.3661C16.1183 10.6006 16.25 10.9185 16.25 11.25V13.75H18.75C19.0815 13.75 19.3995 13.8817 19.6339 14.1161C19.8683 14.3506 20 14.6685 20 15C20 15.3315 19.8683 15.6495 19.6339 15.8839C19.3995 16.1183 19.0815 16.25 18.75 16.25H16.25V18.75C16.25 19.0815 16.1183 19.3995 15.8839 19.6339C15.6495 19.8683 15.3315 20 15 20C14.6685 20 14.3505 19.8683 14.1161 19.6339C13.8817 19.3995 13.75 19.0815 13.75 18.75V16.25H11.25C10.9185 16.25 10.6005 16.1183 10.3661 15.8839C10.1317 15.6495 10 15.3315 10 15C10 14.6685 10.1317 14.3506 10.3661 14.1161C10.6005 13.8817 10.9185 13.75 11.25 13.75H13.75V11.25C13.75 10.9185 13.8817 10.6006 14.1161 10.3661C14.3505 10.1317 14.6685 10 15 10Z" fill="#005496"/>
</svg>
