<svg width="30" height="30" viewBox="0 0 30 30" fill="none" xmlns="http://www.w3.org/2000/svg">
<path d="M6.25 11.875C6.25 11.875 3.03562 13.125 2.5 17.5M23.75 11.875C23.75 11.875 26.9644 13.125 27.5 17.5M11.25 11.875C11.25 11.875 14.25 12.6044 15 16.25C15.75 12.6044 18.75 11.875 18.75 11.875M12.5 21.25C12.5 21.25 9.875 21.7188 8.75 25M17.5 21.25C17.5 21.25 20.125 21.7188 21.25 25" stroke="#005496" stroke-width="2.5" stroke-linecap="round"/>
<path d="M15 22.5C16.7259 22.5 18.125 21.1009 18.125 19.375C18.125 17.6491 16.7259 16.25 15 16.25C13.2741 16.25 11.875 17.6491 11.875 19.375C11.875 21.1009 13.2741 22.5 15 22.5Z" stroke="#005496" stroke-width="2.5" stroke-linecap="round" stroke-linejoin="round"/>
<path d="M21.25 12.5C23.3211 12.5 25 10.8211 25 8.75C25 6.67893 23.3211 5 21.25 5C19.1789 5 17.5 6.67893 17.5 8.75C17.5 10.8211 19.1789 12.5 21.25 12.5Z" stroke="#005496" stroke-width="2.5" stroke-linecap="round" stroke-linejoin="round"/>
<path d="M8.75 12.5C10.8211 12.5 12.5 10.8211 12.5 8.75C12.5 6.67893 10.8211 5 8.75 5C6.67893 5 5 6.67893 5 8.75C5 10.8211 6.67893 12.5 8.75 12.5Z" stroke="#005496" stroke-width="2.5" stroke-linecap="round" stroke-linejoin="round"/>
</svg>
